<svg id="benefits" data-name="benefits" xmlns="http://www.w3.org/2000/svg" viewBox="0 0 109 82"><defs><style>.cls-1{fill:#6abb43;fill-rule:evenodd;}</style></defs><title>benefits4</title><path class="cls-1" d="M779.84,405.55a1.61,1.61,0,0,1,.64,2.17,14.58,14.58,0,0,1-1.68,2.5,1.6,1.6,0,0,1-1.23.58,1.58,1.58,0,0,1-1-.37,1.61,1.61,0,0,1-.21-2.26,12,12,0,0,0,1.34-2A1.59,1.59,0,0,1,779.84,405.55Zm17.54,33.86a27.12,27.12,0,0,1-16.51,8.65,15.27,15.27,0,0,1-13.8,8.8,15.45,15.45,0,0,1-3.2-.34A20.17,20.17,0,0,1,750,462a20.42,20.42,0,0,1-19.68-15.17c-5.5-3.49-13.37-6.65-19.07-8.72a1.6,1.6,0,1,1,1.08-3,122.82,122.82,0,0,1,17.34,7.61c0-.38,0-.77,0-1.16a20.23,20.23,0,0,1,.42-4.07c-14-5.66-33.08-9.73-33.28-9.77a1.6,1.6,0,0,1,.66-3.14c.2,0,19.25,4.1,33.5,9.81a20.17,20.17,0,0,1,1.47-3.12,1.6,1.6,0,1,1,2.76,1.61,20.88,20.88,0,0,0-1.69,4.08,17.16,17.16,0,0,0,26.89,18.35,15.63,15.63,0,0,1-1.82-1.05,1.62,1.62,0,0,1-.43-2.23,1.6,1.6,0,0,1,2.22-.43,12,12,0,0,0,6.74,2.06,12.09,12.09,0,0,0,12-12.1,1.6,1.6,0,1,1,3.19,0,15.52,15.52,0,0,1-.3,3.07,24.1,24.1,0,0,0,0-47.24,15.42,15.42,0,0,1,.3,3.06,1.6,1.6,0,1,1-3.19,0,12.09,12.09,0,0,0-.81-4.35l0-.07h0a12,12,0,0,0-19-4.8,1.6,1.6,0,1,1-2.06-2.44,15,15,0,0,1,3.15-2.07A17,17,0,0,0,750,383.2a17.2,17.2,0,0,0-16.53,21.85,19.67,19.67,0,0,0,2,4.65,1.62,1.62,0,0,1-.49,2.21,1.59,1.59,0,0,1-2.2-.49,20.44,20.44,0,0,1-1.9-3.8c-14.24,5.71-33.29,9.77-33.49,9.81a1.6,1.6,0,0,1-.66-3.14c.2,0,19.28-4.11,33.28-9.77a20.26,20.26,0,0,1-.42-4.08c0-.38,0-.77,0-1.15a122.82,122.82,0,0,1-17.34,7.61,1.47,1.47,0,0,1-.54.1,1.6,1.6,0,0,1-.54-3.11c5.7-2.07,13.57-5.23,19.07-8.72A20.42,20.42,0,0,1,750,380a20.15,20.15,0,0,1,13.87,5.48,15.45,15.45,0,0,1,3.2-.34,15.27,15.27,0,0,1,13.8,8.8,27.32,27.32,0,0,1,16.51,45.47Zm-91.33-30.36c-1.81.59-2.91.91-3,.93a1.74,1.74,0,0,1-.45.06,1.6,1.6,0,0,1-.45-3.14s1.11-.33,2.89-.9a1.6,1.6,0,0,1,1,3.05Zm-3,23s1.15.34,3,.93a1.6,1.6,0,0,1,1,2,1.58,1.58,0,0,1-1.51,1.11,1.62,1.62,0,0,1-.49-.08c-1.78-.57-2.87-.9-2.89-.9a1.6,1.6,0,0,1,.9-3.08Z" transform="translate(-695.5 -380)"/></svg>