<svg id="benefits" data-name="benefits" xmlns="http://www.w3.org/2000/svg" viewBox="0 0 89 86"><defs><style>.cls-1{fill:#000;fill-rule:evenodd;}</style></defs><title>benefits2</title><path class="cls-1" d="M778.14,464c-7.88,0-16.35-1.86-16.35-5.95V422.38c0-4.08,8.47-5.94,16.35-5.94s16.36,1.86,16.36,5.94v35.67C794.5,462.14,786,464,778.14,464Zm0-44.59c-8.68,0-13.14,2.16-13.38,3h0c.24.78,4.7,2.94,13.38,2.94s13.09-2.13,13.39-3C791.23,421.54,786.77,419.41,778.14,419.41ZM791.53,426c-3.17,1.59-8.39,2.34-13.39,2.34s-10.21-.75-13.38-2.34v2.34c.23.8,4.69,3,13.38,3s13.16-2.17,13.39-3Zm0,5.94c-3.17,1.59-8.39,2.34-13.39,2.34s-10.21-.75-13.38-2.33v2.33c.23.8,4.69,3,13.38,3s13.16-2.17,13.39-3Zm0,5.95c-3.17,1.59-8.39,2.34-13.39,2.34s-10.21-.75-13.38-2.34v2.34c.23.8,4.69,3,13.38,3s13.16-2.17,13.39-3Zm0,5.94c-3.17,1.59-8.39,2.34-13.39,2.34s-10.21-.74-13.38-2.33v2.33c.23.81,4.69,3,13.38,3s13.16-2.17,13.39-3Zm0,5.95c-3.17,1.59-8.39,2.34-13.39,2.34s-10.21-.74-13.38-2.34v2.34c.23.8,4.69,3,13.38,3s13.16-2.17,13.39-3Zm0,6c-3.17,1.58-8.39,2.33-13.39,2.33s-10.21-.74-13.38-2.33v2.33c.23.81,4.69,3,13.38,3s13.16-2.17,13.39-3Zm-37.18-43.53h11.81a1.28,1.28,0,0,1,0,2.55H754.35a1.28,1.28,0,0,1,0-2.55Zm-11.89.08a13.08,13.08,0,1,1-13.08,13.08A13.08,13.08,0,0,1,742.46,412.27Zm0,23.79a10.71,10.71,0,1,0-10.71-10.71A10.72,10.72,0,0,0,742.46,436.06Zm.74-9.22h-1.48a3.55,3.55,0,0,1-3.72-3.35,3.45,3.45,0,0,1,3-3.27v-.07a1.49,1.49,0,0,1,3,0h1.48a1.49,1.49,0,1,1,0,3h-3.71c-.47,0-.75.26-.75.38s.28.37.75.37h1.48a3.55,3.55,0,0,1,3.72,3.35,3.45,3.45,0,0,1-3,3.27v.07a1.49,1.49,0,0,1-3,0h-1.48a1.49,1.49,0,0,1,0-3h3.71c.47,0,.75-.26.75-.37S743.67,426.84,743.2,426.84ZM719.33,436h11.23a1.28,1.28,0,1,1,0,2.55h-11.8a1.25,1.25,0,0,1-.94-.42l-6-6.6a1.3,1.3,0,0,1-.33-.86V420.07a1.59,1.59,0,0,1,.38-1l6.64-6.48a1.29,1.29,0,0,1,.89-.36h11.2a1.28,1.28,0,1,1,0,2.55H719.88L714,420.48v9.66Zm61.79-22.72h0a1.27,1.27,0,0,1-1.28-1.27v-3.19H708.05v33.13h49.28a1.27,1.27,0,0,1,0,2.54H706.77a1.27,1.27,0,0,1-1.27-1.27V407.52h0a1.27,1.27,0,0,1,1.27-1.28h74.35a1.29,1.29,0,0,1,1.27,1.28V412h0A1.27,1.27,0,0,1,781.12,413.25Zm-8.92-10.4a.86.86,0,0,1-.28,0l-58.23-13.09L711,401.85a1.28,1.28,0,1,1-2.49-.55l3-13.38a1.24,1.24,0,0,1,.56-.8,1.3,1.3,0,0,1,1-.17l59.48,13.38a1.27,1.27,0,0,1,1,1.24A1.29,1.29,0,0,1,772.2,402.85Zm-7.93-7.53-34.58-14.41-2.44,4.88h0a.43.43,0,0,1,0,.07,1.27,1.27,0,0,1-1.73.52,1.28,1.28,0,0,1-.52-1.73l3-5.95a1.28,1.28,0,0,1,1.64-.6L765.25,393a1.28,1.28,0,0,1-1,2.36Z" transform="translate(-705.5 -378)"/></svg>