<svg id="benefits" data-name="benefits" xmlns="http://www.w3.org/2000/svg" viewBox="0 0 89 109"><defs><style>.cls-1{fill:#000;fill-rule:evenodd;}</style></defs><title>benefits1</title><path class="cls-1" d="M794.5,448.82v6.41a1.6,1.6,0,0,1-1.6,1.6H754.82v9h12.34a1.61,1.61,0,0,1,1.6,1.61v4.83h15.55a1.61,1.61,0,1,1,0,3.21H715.68a1.61,1.61,0,0,1,0-3.21h15.56v-4.83a1.6,1.6,0,0,1,1.6-1.61h12.34v-9H707.1a1.6,1.6,0,0,1-1.6-1.6v-6.44a.49.49,0,0,1,0-.12v0a1,1,0,0,1,0-.17l2.86-13.58h0l2.86-13.58v0l2.86-13.58a1.6,1.6,0,0,1,1.57-1.28h68.64a1.6,1.6,0,0,1,1.57,1.28l2.86,13.59h0l2.86,13.58h0l2.86,13.58h0a1,1,0,0,1,0,.17.19.19,0,0,0,0,.08v.1Zm-60,20.24v3.23h31.1v-3.23h-31.1Zm17.16-3.21v-9h-3.22v9Zm-37.49-42.64-2.18,10.38h23.22l.73-10.38ZM717,409.62,714.8,420h21.31l.73-10.38Zm43,0H740.06L739.33,420h21.34Zm1,13.59H739.1l-.73,10.38h23.25Zm1,13.59h-23.7l-.73,10.39h25.16ZM783,409.62H763.16l.73,10.38H785.2Zm2.86,13.59H764.11l.73,10.38h23.22Zm2.85,13.59H765.07l.72,10.39h25.13Zm2.56,13.6h-68a1.61,1.61,0,1,1,0-3.21h10.92l.72-10.39H711.26l-2.18,10.39h7.27a1.61,1.61,0,0,1,0,3.21h-7.64v3.22h82.58ZM765,384.73h-2.14a1.61,1.61,0,1,1,0-3.21H765a1.61,1.61,0,1,1,0,3.21Zm-4.78-9.57a1.6,1.6,0,0,1-2.26-2.27l1.51-1.52a1.61,1.61,0,0,1,2.27,2.27Zm0,15.94,1.52,1.51a1.6,1.6,0,0,1,0,2.27,1.56,1.56,0,0,1-1.13.47,1.6,1.6,0,0,1-1.14-.47L758,393.37a1.6,1.6,0,0,1,2.26-2.27ZM751.6,396v2.15a1.6,1.6,0,1,1-3.2,0V396a1.6,1.6,0,0,1,3.2,0Zm-1.6-4.83a8,8,0,1,1,8-8A8.05,8.05,0,0,1,750,391.17Zm0-12.88a4.84,4.84,0,1,0,4.83,4.84A4.84,4.84,0,0,0,750,378.29Zm0-6.43a1.6,1.6,0,0,1-1.6-1.61V368.1a1.6,1.6,0,1,1,3.2,0v2.15A1.6,1.6,0,0,1,750,371.86Zm-9.1,3.77a1.6,1.6,0,0,1-1.13-.47l-1.52-1.52a1.61,1.61,0,0,1,2.27-2.27l1.51,1.52a1.61,1.61,0,0,1-1.13,2.74ZM742,391.1a1.6,1.6,0,0,1,0,2.27l-1.51,1.51a1.6,1.6,0,0,1-1.14.47,1.56,1.56,0,0,1-1.13-.47,1.6,1.6,0,0,1,0-2.27l1.52-1.51A1.59,1.59,0,0,1,742,391.1Zm-3.29-8a1.61,1.61,0,0,1-1.61,1.6H735a1.61,1.61,0,1,1,0-3.21h2.14A1.61,1.61,0,0,1,738.74,383.13Z" transform="translate(-705.5 -366.5)"/></svg>