<svg id="benefits" data-name="benefits" xmlns="http://www.w3.org/2000/svg" viewBox="0 0 86 128"><defs><style>.cls-1{fill:#000;fill-rule:evenodd;}</style></defs><title>benefits3</title><path class="cls-1" d="M788.23,441.81a1.28,1.28,0,0,1-1,.51H786v41.43A1.26,1.26,0,0,1,784.7,485H717.57a1.26,1.26,0,0,1-1.27-1.25V442.32h-1.25a1.26,1.26,0,0,1-1.2-1.63l5-16a1.28,1.28,0,0,1,1.21-.88h62.18a1.27,1.27,0,0,1,1.21.88l5,16A1.24,1.24,0,0,1,788.23,441.81Zm-42.94,28.88h.94a1.26,1.26,0,1,1,0,2.51h-.94v9.29H757V455.8H745.29ZM721,426.34l-4.21,13.47h23.43v-3.24a1.27,1.27,0,0,1,.3-.81l8-9.42ZM742.71,437v4a1.25,1.25,0,0,1-1.26,1.25H718.83v40.17h23.94V454.55A1.25,1.25,0,0,1,744,453.3h14.2a1.26,1.26,0,0,1,1.27,1.25v27.94h23.93V442.32H760.81a1.25,1.25,0,0,1-1.26-1.25v-4l-8.42-9.88Zm38.58-10.69H753.75l8,9.42a1.21,1.21,0,0,1,.3.81v3.24H785.5ZM751,443.44a4.75,4.75,0,1,1,4.78-4.75A4.78,4.78,0,0,1,751,443.44Zm0-7a2.25,2.25,0,1,0,2.25,2.24A2.25,2.25,0,0,0,751,436.45ZM738.9,474.32a1.25,1.25,0,0,1-1.26,1.25H723.85a1.25,1.25,0,0,1-1.26-1.25V456.05a1.25,1.25,0,0,1,1.26-1.26h13.79a1.25,1.25,0,0,1,1.26,1.26Zm-2.52-17H725.11v15.77h11.27Zm28.24-2.51h13.79a1.25,1.25,0,0,1,1.26,1.26v18.27a1.25,1.25,0,0,1-1.26,1.25H764.62a1.26,1.26,0,0,1-1.26-1.25V456.05A1.26,1.26,0,0,1,764.62,454.79Zm1.27,18.28h11.26V457.3H765.89Z" transform="translate(-707 -357)"/><path class="cls-1" d="M787.68,367.65a5.25,5.25,0,0,1-2.69-.74l-29.74,29.81a5.23,5.23,0,0,1,.72,2.67,5.32,5.32,0,1,1-9.91-2.69l-3.94-3.93a5.26,5.26,0,0,1-2.67.73,5.33,5.33,0,0,1-2.67-.72l-19.86,19.88a5.32,5.32,0,1,1-4.6-2.66,5.38,5.38,0,0,1,2.67.72l19.86-19.88a5.23,5.23,0,0,1-.72-2.67,5.32,5.32,0,1,1,9.92,2.66l4,3.95a5.3,5.3,0,0,1,2.65-.71,5.38,5.38,0,0,1,2.67.71L783.06,365a5.32,5.32,0,1,1,4.62,2.68Zm-75.36,45.09a2.59,2.59,0,1,0,2.59,2.59A2.59,2.59,0,0,0,712.32,412.74Zm27.13-27.16a2.59,2.59,0,1,0,2.58,2.59A2.59,2.59,0,0,0,739.45,385.58Zm11.2,11.22a2.59,2.59,0,1,0,2.59,2.59A2.58,2.58,0,0,0,750.65,396.8Zm37-37.06a2.59,2.59,0,1,0,2.59,2.58A2.58,2.58,0,0,0,787.68,359.74Z" transform="translate(-707 -357)"/></svg>