<svg id="benefits" data-name="benefits" xmlns="http://www.w3.org/2000/svg" viewBox="0 0 94.97 88.79"><defs><style>.cls-1{fill:#6abb43;fill-rule:evenodd;}</style></defs><title>benefits6</title><path class="cls-1" d="M749.61,465.39a19.1,19.1,0,0,0,19-19.16c0-10-15.8-27.21-17.59-29.14l-1.39-1.49-1.39,1.49c-1.8,1.93-17.6,19.15-17.6,29.14A19.1,19.1,0,0,0,749.61,465.39Zm0-45.27c5.25,5.91,16.3,19.57,16.3,26.11,0,8.44-7.94,16.44-16.3,16.44s-16.31-8-16.31-16.44C733.3,439.69,744.36,426,749.61,420.12Z" transform="translate(-702.62 -376.6)"/><path class="cls-1" d="M721.61,426.39a19.1,19.1,0,0,0,19-19.16c0-10-15.8-27.21-17.59-29.14l-1.39-1.49-1.39,1.49c-1.8,1.93-17.6,19.15-17.6,29.14A19.1,19.1,0,0,0,721.61,426.39Zm0-45.27c5.25,5.91,16.3,19.57,16.3,26.11,0,8.44-7.94,16.44-16.3,16.44s-16.31-8-16.31-16.44C705.3,400.69,716.36,387,721.61,381.12Z" transform="translate(-702.62 -376.6)"/><path class="cls-1" d="M778.61,426.39a19.1,19.1,0,0,0,19-19.16c0-10-15.8-27.21-17.59-29.14l-1.39-1.49-1.39,1.49c-1.8,1.93-17.6,19.15-17.6,29.14A19.1,19.1,0,0,0,778.61,426.39Zm0-45.27c5.25,5.91,16.3,19.57,16.3,26.11,0,8.44-7.94,16.44-16.3,16.44s-16.31-8-16.31-16.44C762.3,400.69,773.36,387,778.61,381.12Z" transform="translate(-702.62 -376.6)"/></svg>