<svg id="benefits" data-name="benefits" xmlns="http://www.w3.org/2000/svg" viewBox="0 0 78.05 103"><defs><style>.cls-1{fill:#6abb43;}</style></defs><title>benefits5</title><path class="cls-1" d="M740.82,390.31c-3-3.12-7.8-4.82-13.75-4.91a38.93,38.93,0,0,0-15.72,3.06,1.43,1.43,0,0,0-.15,2.56,15.65,15.65,0,0,1,6.7,7.83c.33.88.59,1.79.87,2.75.2.72.41,1.46.65,2.18a14.23,14.23,0,0,0,1.57,3.35,11.84,11.84,0,0,0,10.07,5.28,13.91,13.91,0,0,0,11-5.47,39.2,39.2,0,0,1,5,5.94,1.51,1.51,0,0,0,.36.54,24.79,24.79,0,0,1,3.68,8.83c1.46,7.55-1.19,15.66-7.86,24.13a11.9,11.9,0,0,0-16.05-3.74l-11.43,6.78a1.45,1.45,0,0,0-.5,2l2.3,3.87-5.57,3.31a1.43,1.43,0,1,0,1.43,2.48l0,0,5.58-3.31,4.61,7.75-5.58,3.31a1.43,1.43,0,1,0,1.44,2.47h0l5.58-3.31,2.3,3.87a1.43,1.43,0,0,0,2,.5l11.43-6.79a11.9,11.9,0,0,0,4.15-16.3l-.13-.22c7.71-9.45,10.77-18.62,9.1-27.28a27.66,27.66,0,0,0-4-9.78,50.85,50.85,0,0,1,2-10.66,17.92,17.92,0,0,0,10.65,3.7h.3a15.39,15.39,0,0,0,13.87-8,18.48,18.48,0,0,0,1.62-4.48c.23-1,.42-2,.6-2.94.25-1.31.48-2.55.82-3.75a21,21,0,0,1,8.06-11.37,1.44,1.44,0,0,0,.36-2,1.49,1.49,0,0,0-.74-.54,51.08,51.08,0,0,0-20.88-2.13c-7.7.83-13.64,3.57-17.19,7.94a17.07,17.07,0,0,0-2,18.07,15.57,15.57,0,0,0,2.23,3.32,53.25,53.25,0,0,0-2.24,9.41,46.12,46.12,0,0,0-3.89-4.14l.09-.23a13.27,13.27,0,0,0-2.82-13.84Zm-1.41,72.74-10.2,6.06L720.84,455l-2.3-3.88,10.19-6a9,9,0,0,1,12.38,3.14l1.45,2.43a9,9,0,0,1-3.15,12.38Zm12.27-83.52c3.87-4.77,10.45-6.39,15.28-6.91a49.89,49.89,0,0,1,5-.26,48.46,48.46,0,0,1,12,1.52A23.66,23.66,0,0,0,777.09,385c-.37,1.33-.63,2.69-.87,4-.19,1-.36,1.89-.58,2.8a15.51,15.51,0,0,1-1.35,3.78,12.58,12.58,0,0,1-11.36,6.48h-.25a14.92,14.92,0,0,1-9.69-3.72c.08-.21.16-.42.25-.63,4-9.91,10.59-15.91,19.64-17.85a1.43,1.43,0,0,0-.57-2.8h0c-9.68,2.08-17.06,8.59-21.4,18.87a11.18,11.18,0,0,1-.86-1.46,14.34,14.34,0,0,1,1.66-15Zm-25.06,13.1a1.43,1.43,0,1,0-1.35,2.52A79.78,79.78,0,0,1,740,405a10.77,10.77,0,0,1-7.74,4.49,9.15,9.15,0,0,1-8.85-3.93,11.24,11.24,0,0,1-1.24-2.68c-.23-.66-.42-1.34-.62-2.05-.28-1-.57-2-.95-3a18.22,18.22,0,0,0-5.6-7.69,36.29,36.29,0,0,1,12-1.88c3.62.05,8.59.8,11.75,4.05a10.52,10.52,0,0,1,2.47,10,84.62,84.62,0,0,0-14.62-9.69Zm0,0" transform="translate(-710.48 -369.5)"/></svg>