<svg id="icon1" data-name="icon1" xmlns="http://www.w3.org/2000/svg" viewBox="0 0 94 98"><defs><style>.cls-1{fill:#6abb43;fill-rule:evenodd;}</style></defs><title>cost1</title><path class="cls-1" d="M745.27,401.42h10.21a1.1,1.1,0,1,1,0,2.19H745.27a1.1,1.1,0,1,1,0-2.19Zm-10.29.07a11.26,11.26,0,1,1-11.32,11.26A11.29,11.29,0,0,1,735,401.49ZM735,422a9.21,9.21,0,1,0-9.27-9.2A9.23,9.23,0,0,0,735,422Zm.64-7.92h-1.29a3.07,3.07,0,0,1-3.21-2.89,3,3,0,0,1,2.57-2.81v-.06a1.29,1.29,0,0,1,2.57,0h1.29a1.28,1.28,0,1,1,0,2.56h-3.22c-.4,0-.64.22-.64.32s.24.32.64.32h1.29a3.07,3.07,0,0,1,3.22,2.88,3,3,0,0,1-2.58,2.82v.05a1.29,1.29,0,0,1-2.57,0H732.4a1.28,1.28,0,1,1,0-2.56h3.22c.4,0,.64-.22.64-.31S736,414,735.62,414ZM715,421.88h9.73a1.1,1.1,0,1,1,0,2.19H714.47a1.12,1.12,0,0,1-.81-.35L708.43,418a1.11,1.11,0,0,1-.29-.74V408.2a1.36,1.36,0,0,1,.34-.9l5.74-5.57a1.12,1.12,0,0,1,.77-.31h9.7a1.1,1.1,0,1,1,0,2.19h-9.25l-5.09,4.94v8.32Zm53.46-19.55h0a1.09,1.09,0,0,1-1.1-1.09V398.5H705.21V427h42.63a1.1,1.1,0,1,1,0,2.19H704.1a1.1,1.1,0,0,1-1.1-1.1V397.4h0a1.1,1.1,0,0,1,1.1-1.1h64.33a1.09,1.09,0,0,1,1.09,1.1v3.84h0A1.09,1.09,0,0,1,768.42,402.33Zm-7.71-8.95a1,1,0,0,1-.25,0l-50.38-11.27-2.33,10.44a1.1,1.1,0,0,1-2.15-.47l2.57-11.52a1.12,1.12,0,0,1,1.32-.83L761,391.21a1.12,1.12,0,0,1,.86,1.07A1.1,1.1,0,0,1,760.71,393.38Zm-6.86-6.48-29.92-12.39-2.11,4.2h0l0,.07a1.11,1.11,0,0,1-1.5.44,1.1,1.1,0,0,1-.44-1.49l2.57-5.11a1.11,1.11,0,0,1,1.41-.53l30.88,12.79a1.1,1.1,0,0,1-.85,2Z" transform="translate(-703 -372)"/><path class="cls-1" d="M761,418.78a1.07,1.07,0,0,1,0-2.14h33.71a1.07,1.07,0,0,1,0,2.14Zm36,4.37v45.78a1.07,1.07,0,0,1-1.07,1.07H760.61a6.62,6.62,0,0,1-6.61-6.61V417.61a6.62,6.62,0,0,1,6.61-6.61h35.31a1.07,1.07,0,1,1,0,2.13H760.61a4.48,4.48,0,1,0,0,8.95h35.32A1.07,1.07,0,0,1,797,423.15Zm-2.14,1.06H760.61a6.59,6.59,0,0,1-4.48-1.75v40.93a4.49,4.49,0,0,0,4.48,4.48h34.25ZM767.16,432h17.62a.94.94,0,1,1,0,1.88H767.16a.94.94,0,1,1,0-1.88Zm0,7.52h17.62a.94.94,0,1,1,0,1.88H767.16a.94.94,0,1,1,0-1.88Zm0,7.52h17.62a.94.94,0,1,1,0,1.88H767.16a.94.94,0,1,1,0-1.88Z" transform="translate(-703 -372)"/></svg>