<svg id="icon3" data-name="icon3" xmlns="http://www.w3.org/2000/svg" viewBox="0 0 115 61"><defs><style>.cls-1{fill:#6abb43;fill-rule:evenodd;}</style></defs><title>cost3</title><path class="cls-1" d="M747.12,408.71a9.27,9.27,0,0,1-5.61.09L729.31,421l12.2,12.2a9.12,9.12,0,0,1,2.64-.39,9.35,9.35,0,1,1-9.34,9.34,9.12,9.12,0,0,1,.39-2.64L723,427.31l-12.2,12.2a9.33,9.33,0,0,1-6,11.51,9.5,9.5,0,0,1-3,.48,9.39,9.39,0,0,1-3.26-.59l-1.44-.54,6.54-6.54a1,1,0,0,0,0-1.39l-2.13-2.13a1,1,0,0,0-1.39,0l-6.54,6.54-.54-1.44a9.41,9.41,0,0,1-.11-6.22,9.33,9.33,0,0,1,11.51-6l12.2-12.2-12.2-12.2a9.12,9.12,0,0,1-2.64.39,9.35,9.35,0,1,1,9.34-9.34,9.12,9.12,0,0,1-.39,2.64l12.2,12.2,12.2-12.2a9.33,9.33,0,0,1,6-11.51,9.35,9.35,0,0,1,6.22.11l1.44.54-6.54,6.54a1,1,0,0,0,0,1.39l2.13,2.13a1,1,0,0,0,1.39,0l6.54-6.54.54,1.44a9.41,9.41,0,0,1,.11,6.22A9.29,9.29,0,0,1,747.12,408.71ZM737.47,439l-.23.59a7.41,7.41,0,1,0,4.34-4.34l-.59.22-13.07-13.07-3.53,3.53Zm-28.94-36,.23-.59a7.41,7.41,0,1,0-4.34,4.34l.59-.22,13.07,13.07,3.53-3.53Zm42.93-4.16-4.24,4.24a3,3,0,0,1-4.17,0L740.91,401a3,3,0,0,1,0-4.17l4.24-4.24a7.37,7.37,0,0,0-7.91,9.88l.22.59-13.07,13.07-6.31,6.31L705,435.46l-.59-.22a7.37,7.37,0,0,0-9.88,7.91l4.24-4.24a3,3,0,0,1,4.17,0l2.14,2.14a3,3,0,0,1,.86,2.09,2.93,2.93,0,0,1-.86,2.08l-4.24,4.24a7.37,7.37,0,0,0,7.91-9.88l-.22-.59,13.07-13.07,6.31-6.31L741,406.54l.59.22a7.37,7.37,0,0,0,9.88-7.91ZM707.09,402a2.2,2.2,0,0,1-1.59,1.31.19.19,0,0,0-.17.16,2.18,2.18,0,0,1-1.31,1.6,2.16,2.16,0,0,1-2-.2.21.21,0,0,0-.24,0,2.19,2.19,0,0,1-3.36-1.39.2.2,0,0,0-.17-.17,2.2,2.2,0,0,1-1.6-1.31,2.17,2.17,0,0,1,.21-2,.21.21,0,0,0,0-.24,2.17,2.17,0,0,1,1.39-3.36.21.21,0,0,0,.17-.17,2.17,2.17,0,0,1,3.36-1.39.21.21,0,0,0,.24,0,2.17,2.17,0,0,1,2-.21,2.2,2.2,0,0,1,1.31,1.6.2.2,0,0,0,.16.17,2.19,2.19,0,0,1,1.6,1.3,2.22,2.22,0,0,1-.2,2.06.21.21,0,0,0,0,.24A2.19,2.19,0,0,1,707.09,402Zm-1.82-3.59a.19.19,0,0,0-.15-.13,2.17,2.17,0,0,1-1.72-1.72.2.2,0,0,0-.13-.16.21.21,0,0,0-.2,0,2.17,2.17,0,0,1-2.44,0,.21.21,0,0,0-.2,0,.2.2,0,0,0-.13.16,2.18,2.18,0,0,1-1.72,1.72.22.22,0,0,0-.16.13.21.21,0,0,0,0,.2,2.16,2.16,0,0,1,0,2.43.23.23,0,0,0,0,.21.21.21,0,0,0,.16.12,2.18,2.18,0,0,1,1.72,1.73.2.2,0,0,0,.13.15.19.19,0,0,0,.2,0,2.16,2.16,0,0,1,1.22-.37,2.13,2.13,0,0,1,1.21.37.2.2,0,0,0,.21,0,.2.2,0,0,0,.13-.15,2.16,2.16,0,0,1,1.72-1.73.19.19,0,0,0,.15-.12.2.2,0,0,0,0-.21,2.19,2.19,0,0,1,0-2.43A.17.17,0,0,0,705.27,398.43ZM739.11,442a2.19,2.19,0,0,1,1.39-3.36.19.19,0,0,0,.17-.16,2.19,2.19,0,0,1,3.36-1.4.21.21,0,0,0,.24,0,2.19,2.19,0,0,1,3.36,1.39.2.2,0,0,0,.17.17,2.18,2.18,0,0,1,1.39,3.36.21.21,0,0,0,0,.24,2.17,2.17,0,0,1-1.39,3.36.21.21,0,0,0-.17.17,2.19,2.19,0,0,1-1.3,1.6,2.24,2.24,0,0,1-.84.16,2.16,2.16,0,0,1-1.22-.37.21.21,0,0,0-.24,0,2.17,2.17,0,0,1-2,.21,2.2,2.2,0,0,1-1.31-1.6.2.2,0,0,0-.16-.17,2.19,2.19,0,0,1-1.6-1.3,2.22,2.22,0,0,1,.2-2.06A.21.21,0,0,0,739.11,442Zm1.62,1.54a.2.2,0,0,0,.16.13,2.18,2.18,0,0,1,1.72,1.72.2.2,0,0,0,.13.16.21.21,0,0,0,.2,0,2.18,2.18,0,0,1,2.43,0,.21.21,0,0,0,.2,0,.2.2,0,0,0,.13-.16,2.18,2.18,0,0,1,1.72-1.72.2.2,0,0,0,.16-.13.21.21,0,0,0,0-.2,2.16,2.16,0,0,1,0-2.43.23.23,0,0,0,0-.21.2.2,0,0,0-.16-.13,2.17,2.17,0,0,1-1.72-1.72.2.2,0,0,0-.13-.15.19.19,0,0,0-.2,0,2.19,2.19,0,0,1-2.43,0,.19.19,0,0,0-.2,0,.2.2,0,0,0-.13.15,2.16,2.16,0,0,1-1.73,1.72.2.2,0,0,0-.15.13.23.23,0,0,0,0,.21,2.16,2.16,0,0,1,0,2.43A.21.21,0,0,0,740.73,443.57Z" transform="translate(-692.5 -390.5)"/><path class="cls-1" d="M800,440a25.49,25.49,0,1,1,7.47-18A25.31,25.31,0,0,1,800,440ZM782,399.1A22.9,22.9,0,1,0,804.9,422,22.94,22.94,0,0,0,782,399.1Zm-1.89,21.6h3.79a5.46,5.46,0,0,1,.06,10.91h-.66v2.72a1.3,1.3,0,0,1-2.6,0v-2.72h-3.6a1.3,1.3,0,1,1,0-2.6h6.8a2.86,2.86,0,0,0,0-5.71h-3.79a5.46,5.46,0,1,1,0-10.91h.6v-2.66a1.3,1.3,0,1,1,2.6,0v2.66h3.49a1.3,1.3,0,1,1,0,2.6h-6.69a2.86,2.86,0,0,0,0,5.71Z" transform="translate(-692.5 -390.5)"/></svg>