<svg id="icon2" data-name="icon2" xmlns="http://www.w3.org/2000/svg" viewBox="0 0 123 97"><defs><style>.cls-1{fill:#6abb43;fill-rule:evenodd;}</style></defs><title>cost2</title><path class="cls-1" d="M773.57,372.5H715.43a.92.92,0,0,0-.93.88v39.26a.93.93,0,0,0,.93.89h24.12v9.32h-7.77a.84.84,0,0,0-.82.89v4.88a.83.83,0,0,0,.82.88h25.44a.83.83,0,0,0,.82-.88v-4.88a.84.84,0,0,0-.82-.89h-7.77v-9.32h24.12a.93.93,0,0,0,.93-.89V373.38a.92.92,0,0,0-.93-.88Zm-37.9,1.77h8v8.1h-8Zm12,39.26v9.32h-6.38v-9.32Zm-12-29.39h8v8h-8Zm0,9.76h8v8h-8Zm-11.46,17.86h-8v-8.1h8Zm0-9.87h-8v-8h8Zm0-9.76h-8v-8h8Zm0-9.76h-8v-8.1h8Zm9.7,29.39H726v-8.1h7.94Zm0-9.87H726v-8h7.94Zm0-9.76H726v-8h7.94Zm0-9.76H726v-8.1h7.94Zm1.76,29.39v-8.1h8v8.1Zm20.61,12.86v3.11H732.72v-3.11Zm-2.95-12.86h-8v-8.1h8Zm0-9.87h-8v-8h8Zm0-9.76h-8v-8h8Zm0-9.76h-8v-8.1h8Zm9.7,29.39h-7.94v-8.1H763Zm0-9.87h-7.94v-8H763Zm0-9.76h-7.94v-8H763Zm0-9.76h-7.94v-8.1H763Zm9.71,29.39h-8v-8.1h8Zm0-9.87h-8v-8h8Zm0-9.76h-8v-8h8Zm0-9.76h-8v-8.1h8Z" transform="translate(-688.5 -372.5)"/><path class="cls-1" d="M808.2,465.67h-1.75v2.1a.74.74,0,0,1-.74.73h-6.9a.74.74,0,0,1-.74-.73v-2.1H794.5a.74.74,0,1,1,0-1.47h13.7a1.82,1.82,0,0,0,1.82-1.8v-1a.74.74,0,0,1,1.48,0v1A3.29,3.29,0,0,1,808.2,465.67Zm-3.23,0h-5.42V467H805Zm5.79-6.61a.73.73,0,0,1-.74-.73V458h-5a.73.73,0,0,1-.73-.73v-2.93a.73.73,0,0,1,.73-.73h5v-2.35h-5a.73.73,0,0,1-.73-.73V447.6a.73.73,0,0,1,.73-.73h5v-2.34h-5a.74.74,0,0,1-.73-.74v-2.93a.73.73,0,0,1,.73-.73h5v-2.34h-5a.74.74,0,0,1-.73-.74v-2.92a.74.74,0,0,1,.73-.74h5v-2.34h-5a.73.73,0,0,1-.73-.73v-2.93a.74.74,0,0,1,.73-.74h5v-4.88A1.82,1.82,0,0,0,808.2,420h-20a.73.73,0,1,1,0-1.46h20a3.29,3.29,0,0,1,3.3,3.27v36.56A.73.73,0,0,1,810.76,459.06ZM810,428.12h-4.24v1.46H810Zm0,6.74h-4.24v1.46H810Zm0,6.74h-4.24v1.46H810Zm0,6.73h-4.24v1.47H810Zm0,6.74h-4.24v1.47H810Zm-9.8.73H788.83a.73.73,0,1,1,0-1.46h11.39a.73.73,0,0,1,0,1.46Zm.69-3.66a.73.73,0,0,1-.74.73H788.78a.73.73,0,1,1,0-1.46h11.39A.74.74,0,0,1,800.91,452.14ZM790,440.25l-.65-7.68a1,1,0,0,1,1-1h8.32a.95.95,0,0,1,.87,1.36l-2.48,5.18,1.23,1.63a1,1,0,0,1,0,1.08l-4.76,7.58a1,1,0,0,1-.82.45.92.92,0,0,1-.29,0,1,1,0,0,1-.68-1l.28-5.36-1.72-1.6A1,1,0,0,1,790,440.25Zm1.45-.32,1.75,1.63a1,1,0,0,1,.31.74l-.19,3.63,3.53-5.62-1.2-1.61a.94.94,0,0,1-.1-1l2.27-4.73h-7ZM785,420H780.8a1.82,1.82,0,0,0-1.82,1.81v4.88h5a.74.74,0,0,1,.73.74v2.93a.73.73,0,0,1-.73.73h-5v2.34h5a.74.74,0,0,1,.73.74v2.92a.74.74,0,0,1-.73.74h-5v2.34h5a.73.73,0,0,1,.73.73v2.93a.74.74,0,0,1-.73.74h-5v2.34h5a.73.73,0,0,1,.73.73v2.93a.73.73,0,0,1-.73.73h-5v2.35h5a.73.73,0,0,1,.73.73v2.93a.73.73,0,0,1-.73.73h-5v4.4a1.82,1.82,0,0,0,1.82,1.8h10.55a.74.74,0,1,1,0,1.47h-.42v2.1a.74.74,0,0,1-.74.73h-6.9a.74.74,0,0,1-.74-.73v-2.1H780.8a3.29,3.29,0,0,1-3.3-3.27V421.77a3.29,3.29,0,0,1,3.3-3.27H785a.73.73,0,1,1,0,1.46ZM784,467h5.42v-1.36H784Zm-5-10.49h4.24v-1.47H779Zm0-6.74h4.24v-1.47H779Zm0-6.74h4.24V441.6H779Zm0-6.74h4.24v-1.46H779Zm0-6.74h4.24v-1.46H779Z" transform="translate(-688.5 -372.5)"/><path class="cls-1" d="M710.31,469.5H691.69a3.19,3.19,0,0,1-3.19-3.19V426a3.2,3.2,0,0,1,3.19-3.2h3.48v-2.5a.83.83,0,0,1,.83-.83h10a.83.83,0,0,1,.83.83v2.5h3.48a3.2,3.2,0,0,1,3.19,3.2v40.28A3.19,3.19,0,0,1,710.31,469.5Zm-5.14-48.33h-8.34v1.66h8.34Zm6.66,4.86a1.52,1.52,0,0,0-1.52-1.53H691.69a1.52,1.52,0,0,0-1.52,1.53v40.28a1.52,1.52,0,0,0,1.52,1.52h18.62a1.52,1.52,0,0,0,1.52-1.52Zm-3.52,20.67-11.67,14.16a.82.82,0,0,1-.64.31.75.75,0,0,1-.38-.1.83.83,0,0,1-.43-.95l3.06-11.45h-3.92a.84.84,0,0,1-.75-.48.83.83,0,0,1,.11-.89l11.67-14.16a.82.82,0,0,1,1-.21.83.83,0,0,1,.43.95l-3.06,11.45h3.92a.84.84,0,0,1,.75.48A.85.85,0,0,1,708.31,446.7Zm-5.64.3a.85.85,0,0,1-.81-1.05l2.35-8.8L696.1,447h3.23a.81.81,0,0,1,.66.33.84.84,0,0,1,.15.72l-2.35,8.8L705.9,447Z" transform="translate(-688.5 -372.5)"/></svg>