<svg id="Layer_1" data-name="Layer 1" xmlns="http://www.w3.org/2000/svg" viewBox="0 0 320.9 98.5"><defs><style>.cls-1{fill:#0555a5;}.cls-2{fill:#fbbc13;}</style></defs><title>logo</title><path class="cls-1" d="M9.8,70.7A2.5,2.5,0,0,0,9,72.5a1.9,1.9,0,0,0,1,1.8,19.61,19.61,0,0,0,4.7,1.6,12.64,12.64,0,0,1,5.7,2.7c1.4,1.2,2,3,2,5.3a7,7,0,0,1-2.6,5.6,10.56,10.56,0,0,1-6.9,2.2A15.76,15.76,0,0,1,1.8,87.1L5.4,83c2.8,2.4,5.4,3.7,7.7,3.7a3.73,3.73,0,0,0,2.5-.7,2.32,2.32,0,0,0,.9-1.9,2.17,2.17,0,0,0-1-1.9,11.64,11.64,0,0,0-3.8-1.4A15.72,15.72,0,0,1,5.1,78C3.7,76.9,3,75.1,3,72.7A6.77,6.77,0,0,1,5.6,67a11,11,0,0,1,6.6-2,15.81,15.81,0,0,1,5.2.9,14.11,14.11,0,0,1,4.5,2.5L19,72.6A11.47,11.47,0,0,0,12,70,3.84,3.84,0,0,0,9.8,70.7Z" transform="translate(-1.8 -4.1)"/><path class="cls-1" d="M49.2,87.9a13,13,0,0,1-9.7,3.8,13.77,13.77,0,0,1-9.7-3.8,12.82,12.82,0,0,1-3.9-9.5,12.67,12.67,0,0,1,3.9-9.5,13,13,0,0,1,9.7-3.8,13.77,13.77,0,0,1,9.7,3.8,12.82,12.82,0,0,1,3.9,9.5A13,13,0,0,1,49.2,87.9Zm-2-9.5A8.32,8.32,0,0,0,45,72.5a7.5,7.5,0,0,0-11,0,9,9,0,0,0,0,11.8,7.5,7.5,0,0,0,11,0A8.49,8.49,0,0,0,47.2,78.4Z" transform="translate(-1.8 -4.1)"/><path class="cls-1" d="M58,91.4V65.6h5.8V86.3h11v5.1Z" transform="translate(-1.8 -4.1)"/><path class="cls-1" d="M87.7,70.6V91.5H81.9V70.6H74.6v-5H95v5Z" transform="translate(-1.8 -4.1)"/><path class="cls-1" d="M117.9,65.6v5.1H105V76h11.6v5H105v5.4h13.3v5.1H99.2V65.6Z" transform="translate(-1.8 -4.1)"/><path class="cls-1" d="M135.3,86.3a8.53,8.53,0,0,0,7-3.4l3.7,3.8a13.5,13.5,0,0,1-10.4,5,13.34,13.34,0,0,1-9.8-3.8,12.67,12.67,0,0,1-3.9-9.5,13.32,13.32,0,0,1,13.5-13.5,13.93,13.93,0,0,1,10.7,4.8l-3.6,4.1a8.29,8.29,0,0,0-6.8-3.4,8.12,8.12,0,0,0-5.6,2.1,7.45,7.45,0,0,0-2.3,5.7A7.76,7.76,0,0,0,130,84,6.84,6.84,0,0,0,135.3,86.3Z" transform="translate(-1.8 -4.1)"/><path class="cls-1" d="M166.6,65.6h5.8V91.5h-5.8V81.3H156.3V91.5h-5.8V65.6h5.8V76.4h10.3Z" transform="translate(-1.8 -4.1)"/><path class="cls-2" d="M197.2,67.9a8.06,8.06,0,0,1,2.8,6.5,7.93,7.93,0,0,1-2.8,6.5,11.73,11.73,0,0,1-7.8,2.4h-7v8.2h-2.7v-26h9.7Q194.5,65.5,197.2,67.9Zm-1.9,11.3a5.67,5.67,0,0,0,2-4.8,6,6,0,0,0-2-4.8,9.21,9.21,0,0,0-5.9-1.7h-6.9v13h6.9A9.21,9.21,0,0,0,195.3,79.2Z" transform="translate(-1.8 -4.1)"/><path class="cls-2" d="M210.7,89.9a12.31,12.31,0,0,1-4.9-4.7,13.37,13.37,0,0,1,0-13.4,12.31,12.31,0,0,1,4.9-4.7,14.79,14.79,0,0,1,7-1.7,14.11,14.11,0,0,1,6.9,1.7,12.31,12.31,0,0,1,4.9,4.7,13,13,0,0,1,1.8,6.8,13.3,13.3,0,0,1-1.8,6.8,12.31,12.31,0,0,1-4.9,4.7,14.68,14.68,0,0,1-6.9,1.7A14.92,14.92,0,0,1,210.7,89.9Zm12.5-2.1a9.76,9.76,0,0,0,3.9-3.9,11.5,11.5,0,0,0,0-11,9.52,9.52,0,0,0-3.9-3.8,11.62,11.62,0,0,0-5.6-1.4,11.92,11.92,0,0,0-5.6,1.4,9.52,9.52,0,0,0-3.9,3.8,10.25,10.25,0,0,0-1.4,5.5,10.56,10.56,0,0,0,5.3,9.4,11.62,11.62,0,0,0,5.6,1.4A10.37,10.37,0,0,0,223.2,87.8Z" transform="translate(-1.8 -4.1)"/><path class="cls-2" d="M272.2,65.5l-8.7,25.9h-2.9L253,69.3l-7.6,22.1h-2.9l-8.7-25.9h2.8l7.5,22.3,7.7-22.3h2.6L262,87.9l7.6-22.4Z" transform="translate(-1.8 -4.1)"/><path class="cls-2" d="M295.5,89.1v2.4H277.2v-26H295v2.4H280v9.2h13.4v2.3H280V89h15.5Z" transform="translate(-1.8 -4.1)"/><path class="cls-2" d="M319.7,91.4l-5.9-8.3a14.77,14.77,0,0,1-2.1.1h-7v8.2H302V65.5h9.7a11.73,11.73,0,0,1,7.8,2.4,8.06,8.06,0,0,1,2.8,6.5,8.54,8.54,0,0,1-1.5,5.1,8.3,8.3,0,0,1-4.4,3l6.3,8.9Zm-2.2-12.2a5.67,5.67,0,0,0,2-4.8,6,6,0,0,0-2-4.8,9.21,9.21,0,0,0-5.9-1.7h-6.9v13h6.9A9.21,9.21,0,0,0,317.5,79.2Z" transform="translate(-1.8 -4.1)"/><path class="cls-2" d="M161.5,4.1Z" transform="translate(-1.8 -4.1)"/><path class="cls-2" d="M178.5,36.6a19.94,19.94,0,0,1,3.4,5.3l24-8a47.36,47.36,0,0,0-8.5-14,46.57,46.57,0,0,0-8.9-7.8L175.7,33.9A35,35,0,0,1,178.5,36.6Z" transform="translate(-1.8 -4.1)"/><path class="cls-2" d="M183.6,54.5h25.3a48.07,48.07,0,0,0-3-20.5l-23,10.5A22.46,22.46,0,0,1,183.6,54.5Z" transform="translate(-1.8 -4.1)"/><path class="cls-2" d="M173.4,32.4l15.1-20.3a47.67,47.67,0,0,0-27-8l2,25.2A21.27,21.27,0,0,1,173.4,32.4Z" transform="translate(-1.8 -4.1)"/><path class="cls-2" d="M160.8,29.4l.7-25.2a46.47,46.47,0,0,0-25.4,8l15.1,20.3A20.15,20.15,0,0,1,160.8,29.4Z" transform="translate(-1.8 -4.1)"/><path class="cls-2" d="M148,34.7a8.74,8.74,0,0,1,1-.8L136.2,12.1a43.7,43.7,0,0,0-4.8,3.7,47.78,47.78,0,0,0-12.7,18.1l24,8A21.69,21.69,0,0,1,148,34.7Z" transform="translate(-1.8 -4.1)"/><path class="cls-2" d="M141,54.5a21.2,21.2,0,0,1,.7-10L118.7,34a47.62,47.62,0,0,0-3,20.5Z" transform="translate(-1.8 -4.1)"/><rect class="cls-1" x="1.2" y="51.9" width="318.6" height="1.6"/><rect class="cls-1" x="1.2" y="96.9" width="318.6" height="1.6"/></svg>