<svg id="mail" data-name="mail" xmlns="http://www.w3.org/2000/svg" viewBox="0 0 31 24"><defs><style>.cls-1{fill:#66b93e;fill-rule:evenodd;}</style></defs><title>mail</title><path class="cls-1" d="M761.71,433H738.29a3.83,3.83,0,0,1-3.79-3.86V412.86a3.83,3.83,0,0,1,3.79-3.86h23.43a3.82,3.82,0,0,1,3.78,3.86v16.28A3.83,3.83,0,0,1,761.71,433Zm2.06-3.86V412.86a2.08,2.08,0,0,0-2.06-2.09H738.29a2.08,2.08,0,0,0-2.06,2.09v16.28a2.09,2.09,0,0,0,2.06,2.1h23.43a2.08,2.08,0,0,0,2-2.1Zm-2.07.26a.87.87,0,0,1-1.23,0L752.76,422l-2.16,2a.85.85,0,0,1-.58.23.88.88,0,0,1-.58-.22l-2.1-1.92-7.75,7.38a.86.86,0,0,1-.59.24.88.88,0,0,1-.6-1.53l7.64-7.27-7.67-7a.89.89,0,0,1-.07-1.25.86.86,0,0,1,1.22-.07l8.3,7.56.14.12,0,0,2,1.86,10.45-9.55a.87.87,0,0,1,1.23.06.9.9,0,0,1-.07,1.25l-7.58,6.92,7.61,7.35A.9.9,0,0,1,761.7,429.4Z" transform="translate(-734.5 -409)"/></svg>