<svg id="phone" data-name="phone" xmlns="http://www.w3.org/2000/svg" viewBox="0 0 20 24"><defs><style>.cls-1{fill:#66b93e;fill-rule:evenodd;}</style></defs><title>phone</title><path class="cls-1" d="M760,429.63a3.05,3.05,0,0,1-1.11,1.78,5.51,5.51,0,0,1-4,1.59c-1.84-.08-6.66-4.53-9.22-7.54s-5.81-9.54-5.66-11.59,2.64-4.72,4.36-4.87c1.11.35,2.91,5.56,2.95,6.92-.12.58-.92.38-1.65,1a2.68,2.68,0,0,0-1,1.86c0,.92,2.07,3.71,2.83,4.71s3.17,4,4.28,3.83,1.26-1.18,1.91-1.78C754.53,424.69,759,428.28,760,429.63Z" transform="translate(-740 -409)"/></svg>